<svg width="36" height="28" viewBox="0 0 36 28" fill="none" xmlns="http://www.w3.org/2000/svg">
<path d="M18 19.8333C18.7956 19.8333 19.5587 19.5875 20.1213 19.1499C20.6839 18.7123 21 18.1188 21 17.5C21 16.8812 20.6839 16.2877 20.1213 15.8501C19.5587 15.4125 18.7956 15.1667 18 15.1667C17.2044 15.1667 16.4413 15.4125 15.8787 15.8501C15.3161 16.2877 15 16.8812 15 17.5C15 18.1188 15.3161 18.7123 15.8787 19.1499C16.4413 19.5875 17.2044 19.8333 18 19.8333ZM27 9.33332C27.7956 9.33332 28.5587 9.57916 29.1213 10.0167C29.6839 10.4543 30 11.0478 30 11.6667V23.3333C30 23.9522 29.6839 24.5457 29.1213 24.9832C28.5587 25.4208 27.7956 25.6667 27 25.6667H9C8.20435 25.6667 7.44129 25.4208 6.87868 24.9832C6.31607 24.5457 6 23.9522 6 23.3333V11.6667C6 11.0478 6.31607 10.4543 6.87868 10.0167C7.44129 9.57916 8.20435 9.33332 9 9.33332H10.5V6.99999C10.5 5.45289 11.2902 3.96916 12.6967 2.8752C14.1032 1.78124 16.0109 1.16666 18 1.16666C18.9849 1.16666 19.9602 1.31754 20.8701 1.61069C21.7801 1.90385 22.6069 2.33353 23.3033 2.8752C23.9997 3.41688 24.5522 4.05994 24.9291 4.76767C25.306 5.4754 25.5 6.23395 25.5 6.99999V9.33332H27ZM18 3.49999C16.8065 3.49999 15.6619 3.86874 14.818 4.52512C13.9741 5.18149 13.5 6.07173 13.5 6.99999V9.33332H22.5V6.99999C22.5 6.07173 22.0259 5.18149 21.182 4.52512C20.3381 3.86874 19.1935 3.49999 18 3.49999Z" fill="#212427"/>
</svg>
