<svg width="29" height="29" viewBox="0 0 29 29" fill="none" xmlns="http://www.w3.org/2000/svg">
<path d="M14.4999 20.5417C15.1409 20.5417 15.7555 20.2871 16.2088 19.8338C16.662 19.3806 16.9166 18.7659 16.9166 18.125C16.9166 17.4841 16.662 16.8694 16.2088 16.4162C15.7555 15.963 15.1409 15.7083 14.4999 15.7083C13.859 15.7083 13.2443 15.963 12.7911 16.4162C12.3379 16.8694 12.0833 17.4841 12.0833 18.125C12.0833 18.7659 12.3379 19.3806 12.7911 19.8338C13.2443 20.2871 13.859 20.5417 14.4999 20.5417ZM21.7499 9.66668C22.3909 9.66668 23.0055 9.92129 23.4588 10.3745C23.912 10.8277 24.1666 11.4424 24.1666 12.0833V24.1667C24.1666 24.8076 23.912 25.4223 23.4588 25.8755C23.0055 26.3287 22.3909 26.5833 21.7499 26.5833H7.24992C6.60898 26.5833 5.99429 26.3287 5.54108 25.8755C5.08786 25.4223 4.83325 24.8076 4.83325 24.1667V12.0833C4.83325 11.4424 5.08786 10.8277 5.54108 10.3745C5.99429 9.92129 6.60898 9.66668 7.24992 9.66668H8.45825V7.25001C8.45825 5.64766 9.09478 4.11094 10.2278 2.97791C11.3608 1.84487 12.8976 1.20834 14.4999 1.20834C15.2933 1.20834 16.079 1.36462 16.812 1.66824C17.545 1.97186 18.211 2.41689 18.772 2.97791C19.333 3.53893 19.7781 4.20495 20.0817 4.93796C20.3853 5.67097 20.5416 6.45661 20.5416 7.25001V9.66668H21.7499ZM14.4999 3.62501C13.5385 3.62501 12.6165 4.00693 11.9367 4.68675C11.2568 5.36657 10.8749 6.2886 10.8749 7.25001V9.66668H18.1249V7.25001C18.1249 6.2886 17.743 5.36657 17.0632 4.68675C16.3834 4.00693 15.4613 3.62501 14.4999 3.62501Z" fill="#212427"/>
</svg>
