<svg width="36" height="27" viewBox="0 0 36 27" fill="none" xmlns="http://www.w3.org/2000/svg">
<path d="M18 19.125C17.2044 19.125 16.4413 18.8879 15.8787 18.466C15.3161 18.044 15 17.4717 15 16.875C15 15.6263 16.335 14.625 18 14.625C18.7956 14.625 19.5587 14.8621 20.1213 15.284C20.6839 15.706 21 16.2783 21 16.875C21 17.4717 20.6839 18.044 20.1213 18.466C19.5587 18.8879 18.7956 19.125 18 19.125ZM27 22.5V11.25H9V22.5H27ZM27 9C27.7956 9 28.5587 9.23705 29.1213 9.65901C29.6839 10.081 30 10.6533 30 11.25V22.5C30 23.0967 29.6839 23.669 29.1213 24.091C28.5587 24.5129 27.7956 24.75 27 24.75H9C8.20435 24.75 7.44129 24.5129 6.87868 24.091C6.31607 23.669 6 23.0967 6 22.5V11.25C6 10.0013 7.335 9 9 9H10.5V6.75C10.5 5.25816 11.2902 3.82742 12.6967 2.77252C14.1032 1.71763 16.0109 1.125 18 1.125C18.9849 1.125 19.9602 1.27049 20.8701 1.55318C21.7801 1.83586 22.6069 2.25019 23.3033 2.77252C23.9997 3.29485 24.5522 3.91495 24.9291 4.59741C25.306 5.27986 25.5 6.01131 25.5 6.75V9H27ZM18 3.375C16.8065 3.375 15.6619 3.73058 14.818 4.36351C13.9741 4.99645 13.5 5.85489 13.5 6.75V9H22.5V6.75C22.5 5.85489 22.0259 4.99645 21.182 4.36351C20.3381 3.73058 19.1935 3.375 18 3.375Z" fill="black"/>
</svg>
